<svg width="24" height="18" viewBox="0 0 24 18" fill="none" xmlns="http://www.w3.org/2000/svg">
<path d="M13.8401 1.18182H9.73578C9.36706 1.18182 9.04097 0.94261 8.93023 0.590909C8.8195 0.239209 8.4934 0 8.12468 0H7.62548C7.50408 0 7.3837 0.0221045 7.27022 0.0652321L5.76744 0.636364L3.88975 1.35441C3.71849 1.41991 3.56853 1.53122 3.45627 1.67619L2.40013 3.0401C2.35061 3.10404 2.30904 3.17375 2.27631 3.24771L1.5814 4.81818L0.58832 7.33267C0.568234 7.38353 0.552352 7.43595 0.540837 7.48941L0.0224258 9.8959C0.00751741 9.9651 0 10.0357 0 10.1065V12.5455V14.5338C0 14.8801 0.179213 15.2018 0.473712 15.3841L2.68846 16.7549C2.75638 16.7969 2.82908 16.8307 2.90502 16.8554L4.46512 17.3636L5.3555 17.702C5.80899 17.8744 6.32077 17.6964 6.56942 17.2798L6.91433 16.702C7.20318 16.218 7.03528 15.5911 6.54323 15.3163L5.57962 14.7782C5.52328 14.7468 5.48837 14.6873 5.48837 14.6228C5.48837 14.4978 5.61365 14.4117 5.73028 14.4565L7.99012 15.3241C8.05851 15.3504 8.12959 15.3691 8.20206 15.3798L11.09 15.8074C11.1384 15.8146 11.1874 15.8182 11.2364 15.8182H13.404C13.4601 15.8182 13.5162 15.8135 13.5716 15.804L15.5013 15.4761C15.5854 15.4618 15.6672 15.4368 15.7449 15.4018L17.8885 14.4349C17.9838 14.3919 18.0957 14.4117 18.1705 14.4848C18.2933 14.6048 18.264 14.8097 18.1124 14.8905L17.2768 15.3359C16.7892 15.5959 16.6267 16.2163 16.9244 16.6819L17.3276 17.3122C17.5836 17.7125 18.0859 17.8774 18.5293 17.7067L20.7567 16.8492C20.8103 16.8286 20.862 16.8033 20.9112 16.7738L23.2949 15.3461C23.5633 15.1853 23.741 14.9082 23.7751 14.5972L23.9881 12.6544C23.996 12.582 23.996 12.5089 23.9881 12.4365L23.7209 10L23.2706 7.49151C23.2608 7.43666 23.2463 7.38273 23.2275 7.33028L22.3256 4.81818L21.5324 3.22484C21.5031 3.166 21.4681 3.11019 21.4279 3.05822L20.3394 1.65255C20.2387 1.52255 20.1075 1.41938 19.9575 1.35217L18.0701 0.506782C17.9927 0.472099 17.9111 0.447411 17.8275 0.433314L15.8408 0.0985707C15.4802 0.0378015 15.1151 0.178773 14.8889 0.466166L14.6259 0.800322C14.4363 1.04121 14.1466 1.18182 13.8401 1.18182Z" fill="url(#paint0_linear_413_38)"/>
<ellipse cx="8.00003" cy="9.81774" rx="2.4186" ry="2.36364" fill="#181818"/>
<ellipse cx="16" cy="9.81774" rx="2.4186" ry="2.36364" fill="#181818"/>
<defs>
<linearGradient id="paint0_linear_413_38" x1="12" y1="0" x2="12" y2="18" gradientUnits="userSpaceOnUse">
<stop stop-color="#4C3187"/>
<stop offset="1" stop-color="#D22379"/>
</linearGradient>
</defs>
</svg>
