<svg width="27" height="27" viewBox="0 0 27 27" fill="none" xmlns="http://www.w3.org/2000/svg">
<path d="M22.5 2.24976H10.5V5.99976H12V3.74976H22.5C22.95 3.74976 23.25 4.04976 23.25 4.49976V12.7498C23.25 13.1998 22.95 13.4998 22.5 13.4998H12.75V18.7498H8.775L6 20.9248V18.7498H3.75C3.3 18.7498 3 18.4498 3 17.9998V9.74976C3 9.29976 3.3 8.99976 3.75 8.99976H13.5V7.49976H3.75C2.475 7.49976 1.5 8.47476 1.5 9.74976V17.9998C1.5 19.2748 2.475 20.2498 3.75 20.2498H4.5V24.0748L9.225 20.2498H14.25V14.9998H22.5C23.775 14.9998 24.75 14.0248 24.75 12.7498V4.49976C24.75 3.22476 23.775 2.24976 22.5 2.24976Z" fill="url(#paint0_linear_24_17)"/>
<path d="M4.64999 17.175H6.44999L6.89999 15.975H9.22499L9.67499 17.175H11.475L8.92499 10.5H7.12499L4.64999 17.175ZM8.02499 12.375L8.77499 14.7H7.27499L8.02499 12.375Z" fill="url(#paint1_linear_24_17)"/>
<path d="M15 12.7502C15.825 12.7502 16.95 12.5252 18 12.0002C19.05 12.5252 20.25 12.7502 21 12.7502V11.2502C21 11.2502 20.25 11.2502 19.425 10.9502C20.325 10.0502 21 8.70024 21 6.75024V6.00024H18.75V4.50024H17.25V6.00024H15V7.50024H19.425C19.275 8.85024 18.675 9.67524 18 10.2002C17.55 9.82524 17.1 9.30024 16.8 8.62524H15.225C15.525 9.60024 15.975 10.3502 16.575 10.9502C15.825 11.2502 15.15 11.2502 15 11.2502V12.7502Z" fill="url(#paint2_linear_24_17)"/>
<defs>
<linearGradient id="paint0_linear_24_17" x1="13.125" y1="2.24976" x2="13.125" y2="24.0748" gradientUnits="userSpaceOnUse">
<stop offset="0.255208" stop-color="#2E307A"/>
<stop offset="1" stop-color="#E81A8A"/>
</linearGradient>
<linearGradient id="paint1_linear_24_17" x1="8.06249" y1="10.5" x2="8.06249" y2="17.175" gradientUnits="userSpaceOnUse">
<stop offset="0.255208" stop-color="#2E307A"/>
<stop offset="1" stop-color="#E81A8A"/>
</linearGradient>
<linearGradient id="paint2_linear_24_17" x1="18" y1="4.50024" x2="18" y2="12.7502" gradientUnits="userSpaceOnUse">
<stop offset="0.255208" stop-color="#2E307A"/>
<stop offset="1" stop-color="#E81A8A"/>
</linearGradient>
</defs>
</svg>
