<svg width="24" height="20" viewBox="0 0 24 20" fill="none" xmlns="http://www.w3.org/2000/svg">
<path d="M3.99975 6.399H4.00313L5.86125 5.62463C5.90131 5.60174 5.93495 5.56913 5.95907 5.5298C5.98319 5.49047 5.99701 5.4457 5.99925 5.39963C5.99711 5.35352 5.98333 5.30871 5.9592 5.26937C5.93507 5.23002 5.90138 5.19743 5.86125 5.17463L4.00238 4.3995H3.99975L3.225 2.538C3.20428 2.49645 3.17239 2.4615 3.13291 2.43708C3.09343 2.41265 3.04793 2.39971 3.0015 2.39971C2.95507 2.39971 2.90957 2.41265 2.87009 2.43708C2.83061 2.4615 2.79872 2.49645 2.778 2.538L2.00175 4.39913H1.99988L0.13875 5.175C0.0984848 5.19771 0.0646371 5.23027 0.0403718 5.26961C0.0161065 5.30896 0.00221633 5.35382 0 5.4C0.00224214 5.44608 0.0160616 5.49085 0.0401814 5.53018C0.0643013 5.5695 0.0979436 5.60211 0.138 5.625L1.99763 6.3975H2.00025L2.775 8.25975C2.79562 8.30141 2.82747 8.33648 2.86696 8.361C2.90646 8.38552 2.95202 8.39851 2.9985 8.39851C3.04498 8.39851 3.09054 8.38552 3.13004 8.361C3.16953 8.33648 3.20138 8.30141 3.222 8.25975L3.99788 6.399H3.99975ZM17.6768 17.5279L17.6393 17.5121L17.6018 17.4934C17.3612 17.3728 17.159 17.1877 17.0176 16.9588C16.8763 16.7298 16.8015 16.4661 16.8015 16.197C16.8015 15.9279 16.8763 15.6642 17.0176 15.4352C17.159 15.2063 17.3612 15.0212 17.6018 14.9006L17.6393 14.8823L17.6768 14.8661L19.0826 14.28L19.6688 12.8745L19.6841 12.837L19.7018 12.8014C19.8461 12.5111 20.0985 12.2903 20.3899 12.1511C20.3899 12.1013 20.3993 12.0503 20.4 12.0011V5.4C20.4 5.08174 20.2736 4.77652 20.0485 4.55147C19.8235 4.32643 19.5183 4.2 19.2 4.2C18.8817 4.2 18.5765 4.32643 18.3515 4.55147C18.1264 4.77652 18 5.08174 18 5.4V8.1C18 8.17957 17.9684 8.25587 17.9121 8.31213C17.8559 8.36839 17.7796 8.4 17.7 8.4H17.1C17.0204 8.4 16.9441 8.36839 16.8879 8.31213C16.8316 8.25587 16.8 8.17957 16.8 8.1V2.4C16.8 2.08174 16.6736 1.77652 16.4485 1.55147C16.2235 1.32643 15.9183 1.2 15.6 1.2C15.2817 1.2 14.9765 1.32643 14.7515 1.55147C14.5264 1.77652 14.4 2.08174 14.4 2.4V8.1C14.4 8.17957 14.3684 8.25587 14.3121 8.31213C14.2559 8.36839 14.1796 8.4 14.1 8.4H13.5C13.4204 8.4 13.3441 8.36839 13.2879 8.31213C13.2316 8.25587 13.2 8.17957 13.2 8.1V1.2C13.2 0.88174 13.0736 0.576516 12.8485 0.351472C12.6235 0.126428 12.3183 0 12 0C11.6817 0 11.3765 0.126428 11.1515 0.351472C10.9264 0.576516 10.8 0.88174 10.8 1.2V8.1C10.8 8.17957 10.7684 8.25587 10.7121 8.31213C10.6559 8.36839 10.5796 8.4 10.5 8.4H9.9C9.82044 8.4 9.74413 8.36839 9.68787 8.31213C9.63161 8.25587 9.6 8.17957 9.6 8.1V2.4C9.6 2.08174 9.47357 1.77652 9.24853 1.55147C9.02348 1.32643 8.71826 1.2 8.4 1.2C8.08174 1.2 7.77652 1.32643 7.55147 1.55147C7.32643 1.77652 7.2 2.08174 7.2 2.4V11.4375L6.31538 10.2191C6.08121 9.89734 5.7288 9.68175 5.33567 9.61979C4.94255 9.55783 4.54092 9.65458 4.21913 9.88875C3.89733 10.1229 3.68175 10.4753 3.61979 10.8685C3.55783 11.2616 3.65458 11.6632 3.88875 11.985L8.59875 18.4579C8.76569 18.6873 8.98444 18.8741 9.23721 19.0031C9.48997 19.1321 9.76961 19.1995 10.0534 19.2H17.4638C18.1853 19.2 18.8006 18.7601 19.0853 18.1204L19.0826 18.114L17.6768 17.5279ZM13.1171 12.732L12 13.1974L11.5342 14.3141C11.5218 14.339 11.5026 14.3599 11.479 14.3745C11.4553 14.3891 11.428 14.3968 11.4002 14.3968C11.3724 14.3968 11.3451 14.3891 11.3214 14.3745C11.2978 14.3599 11.2786 14.339 11.2661 14.3141L10.8 13.1974L9.68288 12.732C9.65791 12.7196 9.63692 12.7004 9.62224 12.6767C9.60756 12.653 9.59979 12.6256 9.59979 12.5978C9.59979 12.5699 9.60756 12.5425 9.62224 12.5188C9.63692 12.4951 9.65791 12.4759 9.68288 12.4635L10.8 11.9978L11.2658 10.881C11.2782 10.8561 11.2974 10.8352 11.321 10.8206C11.3447 10.806 11.372 10.7983 11.3998 10.7983C11.4276 10.7983 11.4549 10.806 11.4786 10.8206C11.5023 10.8352 11.5214 10.8561 11.5339 10.881L12 11.9978L13.1171 12.4635C13.1421 12.4759 13.1631 12.4951 13.1778 12.5188C13.1924 12.5425 13.2002 12.5699 13.2002 12.5978C13.2002 12.6256 13.1924 12.653 13.1778 12.6767C13.1631 12.7004 13.1421 12.7196 13.1171 12.732ZM24 16.1966C23.9979 16.1505 23.9841 16.1057 23.96 16.0663C23.9359 16.027 23.9021 15.9944 23.862 15.9716L22.0031 15.1965H22.0005L21.225 13.3361C21.2043 13.2946 21.1724 13.2596 21.1329 13.2352C21.0934 13.2108 21.0479 13.1978 21.0015 13.1978C20.9551 13.1978 20.9096 13.2108 20.8701 13.2352C20.8306 13.2596 20.7987 13.2946 20.778 13.3361L20.0018 15.1973H19.9999L18.1388 15.975C18.0986 15.9978 18.0649 16.0304 18.0408 16.0697C18.0166 16.1091 18.0029 16.1539 18.0008 16.2C18.0032 16.2458 18.0171 16.2902 18.0412 16.3292C18.0654 16.3682 18.0989 16.4005 18.1388 16.4231L19.9976 17.1983H20.0003L20.775 19.0579C20.7956 19.0995 20.8275 19.1346 20.867 19.1591C20.9065 19.1836 20.952 19.1966 20.9985 19.1966C21.045 19.1966 21.0905 19.1836 21.13 19.1591C21.1695 19.1346 21.2014 19.0995 21.222 19.0579L21.9979 17.1971H22.0013L23.8594 16.4224C23.8992 16.3997 23.9328 16.3674 23.9569 16.3284C23.981 16.2895 23.9949 16.245 23.9974 16.1993L24 16.1966Z" fill="url(#paint0_linear_24_51)"/>
<defs>
<linearGradient id="paint0_linear_24_51" x1="12" y1="0" x2="12" y2="19.2" gradientUnits="userSpaceOnUse">
<stop offset="0.203125" stop-color="#2E307A"/>
<stop offset="1" stop-color="#E81A8A"/>
</linearGradient>
</defs>
</svg>
