<svg width="16" height="19" viewBox="0 0 16 19" fill="none" xmlns="http://www.w3.org/2000/svg">
<path d="M14.8532 1.56643C14.7428 1.47712 14.6137 1.41369 14.4756 1.3808C14.3375 1.34791 14.1937 1.34639 14.0549 1.37637C13.0395 1.58918 11.9912 1.59189 10.9746 1.38434C9.9581 1.17678 8.9948 0.763345 8.14405 0.169491C7.98498 0.0591351 7.79599 0 7.60238 0C7.40878 0 7.21979 0.0591351 7.06072 0.169491C6.20997 0.763345 5.24667 1.17678 4.23013 1.38434C3.21359 1.59189 2.16532 1.58918 1.14987 1.37637C1.01106 1.34639 0.867309 1.34791 0.729169 1.3808C0.59103 1.41369 0.462017 1.47712 0.351615 1.56643C0.241361 1.65587 0.152548 1.76888 0.0917019 1.89715C0.0308556 2.02542 -0.00047723 2.16569 5.49413e-06 2.30766V9.38738C-0.000839355 10.7499 0.323841 12.0928 0.94701 13.3045C1.57018 14.5161 2.4738 15.5613 3.58263 16.3531L7.05121 18.8238C7.21216 18.9384 7.40481 19 7.60238 19C7.79996 19 7.99261 18.9384 8.15356 18.8238L11.6221 16.3531C12.731 15.5613 13.6346 14.5161 14.2578 13.3045C14.8809 12.0928 15.2056 10.7499 15.2048 9.38738V2.30766C15.2052 2.16569 15.1739 2.02542 15.1131 1.89715C15.0522 1.76888 14.9634 1.65587 14.8532 1.56643ZM13.3042 9.38738C13.3049 10.4467 13.0526 11.4909 12.5683 12.4331C12.084 13.3753 11.3817 14.1881 10.5198 14.8041L7.60238 16.8852L4.68497 14.8041C3.82309 14.1881 3.12077 13.3753 2.63646 12.4331C2.15216 11.4909 1.89987 10.4467 1.9006 9.38738V3.4005C3.89283 3.57102 5.88809 3.10878 7.60238 2.07959C9.31668 3.10878 11.3119 3.57102 13.3042 3.4005V9.38738ZM9.06584 7.21119L6.50954 9.777L5.66378 8.92173C5.48483 8.74279 5.24213 8.64225 4.98907 8.64225C4.736 8.64225 4.4933 8.74279 4.31436 8.92173C4.13541 9.10067 4.03488 9.34338 4.03488 9.59644C4.03488 9.84951 4.13541 10.0922 4.31436 10.2712L5.83483 11.7916C5.92317 11.8807 6.02828 11.9514 6.14408 11.9996C6.25988 12.0479 6.38409 12.0727 6.50954 12.0727C6.63499 12.0727 6.7592 12.0479 6.875 11.9996C6.99081 11.9514 7.09591 11.8807 7.18425 11.7916L10.4533 8.55111C10.6322 8.37217 10.7328 8.12947 10.7328 7.8764C10.7328 7.62334 10.6322 7.38064 10.4533 7.20169C10.2743 7.02275 10.0316 6.92222 9.77857 6.92222C9.5255 6.92222 9.2828 7.02275 9.10385 7.20169L9.06584 7.21119Z" fill="url(#paint0_linear_24_20)"/>
<defs>
<linearGradient id="paint0_linear_24_20" x1="7.60238" y1="0" x2="7.60238" y2="19" gradientUnits="userSpaceOnUse">
<stop offset="0.208333" stop-color="#2E307A"/>
<stop offset="1" stop-color="#E81A8A"/>
</linearGradient>
</defs>
</svg>
