<svg width="24" height="24" viewBox="0 0 24 24" fill="none" xmlns="http://www.w3.org/2000/svg">
<path d="M12 24C10.375 24 8.82031 23.6836 7.33594 23.0508C5.85156 22.418 4.57422 21.5664 3.50391 20.4961C2.43359 19.4258 1.58203 18.1484 0.949219 16.6641C0.316406 15.1797 0 13.625 0 12C0 10.375 0.316406 8.82031 0.949219 7.33594C1.58203 5.85156 2.43359 4.57422 3.50391 3.50391C4.57422 2.43359 5.85156 1.58203 7.33594 0.949219C8.82031 0.316406 10.375 0 12 0C13.625 0 15.1797 0.316406 16.6641 0.949219C18.1484 1.58203 19.4258 2.43359 20.4961 3.50391C21.5664 4.57422 22.418 5.85156 23.0508 7.33594C23.6836 8.82031 24 10.375 24 12C24 13.625 23.6836 15.1797 23.0508 16.6641C22.418 18.1484 21.5664 19.4258 20.4961 20.4961C19.4258 21.5664 18.1484 22.418 16.6641 23.0508C15.1797 23.6836 13.625 24 12 24ZM18.3281 10.4297C18.1406 10.5234 17.9453 10.5234 17.7422 10.4297C17.5391 10.3359 17.3945 10.1836 17.3086 9.97266C17.2227 9.76172 17.2227 9.54687 17.3086 9.32812C17.3945 9.10938 17.5391 8.96094 17.7422 8.88281L19.9688 7.875C19.0781 6.17188 17.7969 4.88281 16.125 4.00781L15.1172 6.25781C15.0391 6.46094 14.8906 6.60547 14.6719 6.69141C14.4531 6.77734 14.2383 6.77734 14.0273 6.69141C13.8164 6.60547 13.6641 6.46094 13.5703 6.25781C13.4766 6.05469 13.4766 5.85156 13.5703 5.64844L14.5781 3.375C13.7344 3.125 12.875 3 12 3C11.125 3 10.2656 3.125 9.42188 3.375L10.4297 5.64844C10.5234 5.85156 10.5234 6.05469 10.4297 6.25781C10.3359 6.46094 10.1836 6.60547 9.97266 6.69141C9.76172 6.77734 9.54687 6.77734 9.32812 6.69141C9.10938 6.60547 8.96094 6.46094 8.88281 6.25781L7.875 4.00781C6.20312 4.86719 4.92188 6.15625 4.03125 7.875L6.25781 8.85938C6.44531 8.95312 6.58203 9.10547 6.66797 9.31641C6.75391 9.52734 6.75391 9.74219 6.66797 9.96094C6.58203 10.1797 6.44141 10.332 6.24609 10.418C6.05078 10.5039 5.85156 10.5 5.64844 10.4062L3.375 9.42188C3.125 10.2656 3 11.125 3 12C3 12.875 3.125 13.7344 3.375 14.5781L5.64844 13.5938C5.85156 13.5 6.05078 13.4961 6.24609 13.582C6.44141 13.668 6.58203 13.8203 6.66797 14.0391C6.75391 14.2578 6.75391 14.4727 6.66797 14.6836C6.58203 14.8945 6.44531 15.0469 6.25781 15.1406L4.03125 16.125C4.92188 17.8281 6.20312 19.1172 7.875 19.9922L8.85938 17.7422C8.95312 17.5547 9.10547 17.418 9.31641 17.332C9.52734 17.2461 9.74219 17.2461 9.96094 17.332C10.1797 17.418 10.332 17.5586 10.418 17.7539C10.5039 17.9492 10.5 18.1484 10.4062 18.3516L9.42188 20.625C10.2656 20.875 11.125 21 12 21C12.875 21 13.7344 20.875 14.5781 20.625L13.5938 18.3516C13.5 18.1484 13.4961 17.9492 13.582 17.7539C13.668 17.5586 13.8203 17.418 14.0391 17.332C14.2578 17.2461 14.4727 17.2461 14.6836 17.332C14.8945 17.418 15.0469 17.5547 15.1406 17.7422L16.125 19.9922C17.8125 19.1172 19.0938 17.8281 19.9688 16.125L17.7422 15.1172C17.5391 15.0391 17.3945 14.8906 17.3086 14.6719C17.2227 14.4531 17.2227 14.2383 17.3086 14.0273C17.3945 13.8164 17.5391 13.6641 17.7422 13.5703C17.9453 13.4766 18.1406 13.4766 18.3281 13.5703L20.625 14.5781C20.875 13.7344 21 12.875 21 12C21 11.125 20.875 10.2656 20.625 9.42188L18.3281 10.4297ZM12 13.5C11.5781 13.5 11.2227 13.3555 10.9336 13.0664C10.6445 12.7773 10.5 12.4219 10.5 12C10.5 11.6719 10.5977 11.375 10.793 11.1094C10.9883 10.8438 11.2422 10.6641 11.5547 10.5703L17.25 6H17.625C17.7344 6 17.8242 6.03516 17.8945 6.10547C17.9648 6.17578 18 6.26563 18 6.375V6.75L13.4297 12.4453C13.3359 12.7578 13.1562 13.0117 12.8906 13.207C12.625 13.4023 12.3281 13.5 12 13.5Z" fill="url(#paint0_linear_24_5)"/>
<defs>
<linearGradient id="paint0_linear_24_5" x1="12" y1="0" x2="12" y2="24" gradientUnits="userSpaceOnUse">
<stop offset="0.328125" stop-color="#2E307A"/>
<stop offset="1" stop-color="#E31B8A"/>
<stop offset="1" stop-color="#E31B8A"/>
</linearGradient>
</defs>
</svg>
